<svg xmlns="http://www.w3.org/2000/svg" viewBox="0 0 512 512">
  <path d="M256 192c-35.3 0-64 28.7-64 64s28.7 64 64 64 64-28.7 64-64-28.7-64-64-64zm0 106.67c-23.52 0-42.67-19.14-42.67-42.67s19.15-42.67 42.67-42.67 42.67 19.14 42.67 42.67-19.15 42.67-42.67 42.67zM448 192c-35.3 0-64 28.7-64 64s28.7 64 64 64 64-28.7 64-64-28.7-64-64-64zm0 106.67c-23.52 0-42.67-19.14-42.67-42.67s19.15-42.67 42.67-42.67c23.52 0 42.67 19.14 42.67 42.67s-19.15 42.67-42.67 42.67zM64 192c-35.3 0-64 28.7-64 64s28.7 64 64 64 64-28.7 64-64-28.7-64-64-64zm0 106.67c-23.52 0-42.67-19.14-42.67-42.67S40.48 213.33 64 213.33s42.67 19.14 42.67 42.67S87.52 298.67 64 298.67z"/>
</svg>
