<svg xmlns="http://www.w3.org/2000/svg" viewBox="0 0 54.691 68.364" fill="#2B2B2B"><path d="M-4318.56-68.404c-43.25 0-78.438 35.186-78.438 78.435 0 43.252 35.188 78.438 78.438 78.438s78.436-35.188 78.436-78.438c0-43.249-35.186-78.435-78.436-78.435zm-.307 33.217c13.682 0 24.771 11.092 24.771 24.771 0 13.682-11.092 24.771-24.771 24.771-13.683 0-24.771-11.092-24.771-24.771-.001-13.679 11.088-24.771 24.771-24.771zm44.181 100.261c-12.042 9.627-27.292 15.396-43.874 15.396-16.562 0-31.797-5.75-43.834-15.354 1.116-19.851 14.187-39.903 30.178-39.903h27.332c16.024 0 29.128 19.324 30.197 39.206l.001.006v.649zM48.277 48.419c-.867 0-1.57-.702-1.57-1.568 0-7.276-5.918-13.194-13.193-13.194H20.187c-7.275 0-13.193 5.918-13.193 13.194a1.569 1.569 0 0 1-3.139 0c0-9.006 7.327-16.333 16.333-16.333h13.326c9.006 0 16.332 7.327 16.332 16.333a1.57 1.57 0 0 1-1.569 1.568zM26.85 27.885c-6.368 0-11.55-5.181-11.55-11.549 0-6.368 5.182-11.55 11.55-11.55 6.369 0 11.55 5.182 11.55 11.55s-5.181 11.549-11.55 11.549zm0-19.96c-4.637 0-8.411 3.773-8.411 8.411s3.773 8.412 8.411 8.412 8.411-3.773 8.411-8.412c-.001-4.638-3.773-8.411-8.411-8.411z"/></svg>
